<svg xmlns="http://www.w3.org/2000/svg" xmlns:xlink="http://www.w3.org/1999/xlink" width="500" zoomAndPan="magnify" viewBox="0 0 375 374.999991" height="500" preserveAspectRatio="xMidYMid meet" version="1.0"><defs><g/></defs><rect x="-37.5" width="450" fill="#ffffff" y="-37.499999" height="449.999989" fill-opacity="1"/><rect x="-37.5" width="450" fill="#022452" y="-37.499999" height="449.999989" fill-opacity="1"/><g fill="#ffffff" fill-opacity="1"><g transform="translate(87.123911, 146.321657)"><g><path d="M 19.265625 -23.3125 C 16.28125 -24.734375 13.328125 -24.734375 13.078125 -24.734375 C 10.390625 -24.734375 7.828125 -26.296875 7.828125 -29.34375 C 7.828125 -32.703125 10.1875 -34.4375 13.078125 -34.4375 C 15.796875 -34.4375 18.109375 -33.015625 18.21875 -30.03125 C 18.21875 -29.875 18.484375 -29.609375 18.796875 -29.609375 L 25.359375 -29.609375 C 25.71875 -29.609375 25.984375 -29.875 25.9375 -30.03125 C 25.828125 -37.171875 20.265625 -42 13.078125 -42 C 6.359375 -42 0 -37.21875 0 -29.34375 C 0 -24.46875 2.46875 -20.734375 6.828125 -18.75 C 9.875 -17.328125 12.703125 -17.328125 13.078125 -17.328125 C 15.4375 -17.21875 18.328125 -15.328125 18.328125 -12.234375 C 18.328125 -9.453125 15.859375 -7.5625 13.078125 -7.5625 C 13.078125 -7.5625 13.078125 -7.5625 13.015625 -7.5625 L 13.015625 0 C 13.078125 0 13.078125 0 13.078125 0 C 19.796875 0 26.09375 -4.359375 26.09375 -12.234375 C 26.09375 -17.171875 23.671875 -21.265625 19.265625 -23.3125 Z M 19.265625 -23.3125 "/></g></g></g><g fill="#ffffff" fill-opacity="1"><g transform="translate(120.30488, 146.321657)"><g><path d="M 19.953125 -7.828125 L 8.03125 -7.828125 L 8.03125 -17.265625 L 24.515625 -17.265625 C 24.828125 -17.265625 25.09375 -17.53125 25.09375 -17.75 L 25.09375 -24.40625 C 25.09375 -24.671875 24.828125 -24.890625 24.515625 -24.890625 L 8.03125 -24.890625 L 8.03125 -34.390625 L 19.953125 -34.390625 L 19.953125 -42 L 0.578125 -42 C 0.265625 -42 0 -41.734375 0 -41.53125 L 0 -0.46875 C 0 -0.265625 0.265625 0 0.578125 0 L 19.953125 0 Z M 19.953125 -7.828125 "/></g></g></g><g fill="#ffffff" fill-opacity="1"><g transform="translate(152.435854, 146.321657)"><g><path d="M 24 -7.71875 C 18.90625 -7.5 8.078125 -8.03125 8.078125 -21 C 8.078125 -30.96875 14.859375 -34.8125 24 -34.328125 L 24 -25.046875 L 32.03125 -25.046875 L 32.03125 -41.53125 C 32.03125 -41.734375 31.8125 -42 31.453125 -42 L 24.625 -42 C 14.328125 -42 0 -39.640625 0 -21 C 0 -3.046875 14.171875 0 24.625 0 L 31.453125 0 C 31.8125 0 32.03125 -0.265625 32.03125 -0.46875 L 32.03125 -7.71875 Z M 24 -7.71875 "/></g></g></g><g fill="#ffffff" fill-opacity="1"><g transform="translate(191.864329, 146.321657)"><g><path d="M 30.96875 -42 L 24.15625 -42 C 23.78125 -42 23.578125 -41.734375 23.578125 -41.53125 L 23.578125 -14.015625 C 23.578125 -9.765625 19.6875 -7.71875 15.75 -7.71875 C 11.859375 -7.71875 8.40625 -9.921875 7.921875 -14.0625 L 7.921875 -34.390625 L 0 -34.390625 L 0 -14.015625 C 0 -5.359375 7.09375 0 15.75 0 C 24.671875 0 31.5 -5.140625 31.5 -14.015625 L 31.5 -41.53125 C 31.5 -41.734375 31.234375 -42 30.96875 -42 Z M 30.96875 -42 "/></g></g></g><g fill="#ffffff" fill-opacity="1"><g transform="translate(230.715302, 146.321657)"><g><path d="M 28.671875 -0.6875 C 26.046875 -6.515625 23.203125 -12.28125 20.578125 -18.21875 C 24.78125 -19.734375 28.296875 -23.09375 28.296875 -29.5 C 28.296875 -41.890625 16.484375 -42 14.125 -42 L 0.53125 -42 C 0.265625 -42 0 -41.734375 0 -41.53125 L 0 -34.390625 L 14.125 -34.390625 C 15.375 -34.390625 20.3125 -34.125 20.3125 -29.5 C 20.3125 -24.890625 15.859375 -24.671875 14.125 -24.671875 L 0 -24.671875 L 0 -0.46875 C 0 -0.265625 0.265625 0 0.53125 0 L 7.40625 0 C 7.71875 0 7.984375 -0.265625 7.984375 -0.46875 L 7.984375 -16.953125 L 12.5 -16.953125 L 20.15625 -0.3125 C 20.21875 -0.15625 20.53125 0 20.6875 0 L 28.1875 0 C 28.609375 0 28.828125 -0.3125 28.671875 -0.6875 Z M 28.671875 -0.6875 "/></g></g></g><g fill="#ffffff" fill-opacity="1"><g transform="translate(266.67877, 146.321657)"><g><path d="M 19.953125 -7.828125 L 8.03125 -7.828125 L 8.03125 -17.265625 L 24.515625 -17.265625 C 24.828125 -17.265625 25.09375 -17.53125 25.09375 -17.75 L 25.09375 -24.40625 C 25.09375 -24.671875 24.828125 -24.890625 24.515625 -24.890625 L 8.03125 -24.890625 L 8.03125 -34.390625 L 19.953125 -34.390625 L 19.953125 -42 L 0.578125 -42 C 0.265625 -42 0 -41.734375 0 -41.53125 L 0 -0.46875 C 0 -0.265625 0.265625 0 0.578125 0 L 19.953125 0 Z M 19.953125 -7.828125 "/></g></g></g><g fill="#ffffff" fill-opacity="1"><g transform="translate(116.678597, 209.321653)"><g><path d="M 7.453125 -42 L 0.578125 -42 C 0.265625 -42 0 -41.734375 0 -41.53125 L 0 -25.046875 L 8.03125 -25.046875 L 8.03125 -34.328125 C 17.171875 -34.8125 23.9375 -30.96875 23.9375 -21 C 23.9375 -8.03125 13.125 -7.5 8.03125 -7.71875 L 8.03125 -16.953125 L 0 -16.953125 L 0 -0.46875 C 0 -0.265625 0.265625 0 0.578125 0 L 7.453125 0 C 17.90625 0 32.03125 -3.046875 32.03125 -21 C 32.03125 -39.640625 17.6875 -42 7.453125 -42 Z M 7.453125 -42 "/></g></g></g><g fill="#ffffff" fill-opacity="1"><g transform="translate(156.107067, 209.321653)"><g><path d="M 32.96875 -0.625 L 17.015625 -41.6875 C 16.859375 -42.109375 16.125 -42.109375 15.953125 -41.6875 L 0.046875 -0.625 C -0.109375 -0.3125 0.109375 0 0.578125 0 L 7.765625 0 C 7.984375 0 8.25 -0.109375 8.296875 -0.3125 L 16.484375 -23.734375 L 24.78125 -0.3125 C 24.828125 -0.109375 25.09375 0 25.25 0 L 32.5 0 C 32.859375 0 33.125 -0.3125 32.96875 -0.625 Z M 32.96875 -0.625 "/></g></g></g><g fill="#ffffff" fill-opacity="1"><g transform="translate(196.533026, 209.321653)"><g><path d="M 8.65625 -26.78125 L 8.65625 -0.46875 C 8.65625 -0.265625 8.875 0 9.234375 0 L 16.015625 0 C 16.375 0 16.640625 -0.265625 16.640625 -0.46875 L 16.640625 -26.78125 Z M 0.578125 -34.8125 L 24.671875 -34.8125 C 25.046875 -34.8125 25.25 -35.015625 25.25 -35.28125 L 25.25 -41.53125 C 25.25 -41.734375 25.046875 -42 24.671875 -42 L 0.578125 -42 C 0.265625 -42 0 -41.734375 0 -41.53125 L 0 -35.28125 C 0 -35.015625 0.265625 -34.8125 0.578125 -34.8125 Z M 0.578125 -34.8125 "/></g></g></g><g fill="#ffffff" fill-opacity="1"><g transform="translate(228.821488, 209.321653)"><g><path d="M 32.96875 -0.625 L 17.015625 -41.6875 C 16.859375 -42.109375 16.125 -42.109375 15.953125 -41.6875 L 0.046875 -0.625 C -0.109375 -0.3125 0.109375 0 0.578125 0 L 7.765625 0 C 7.984375 0 8.25 -0.109375 8.296875 -0.3125 L 16.484375 -23.734375 L 24.78125 -0.3125 C 24.828125 -0.109375 25.09375 0 25.25 0 L 32.5 0 C 32.859375 0 33.125 -0.3125 32.96875 -0.625 Z M 32.96875 -0.625 "/></g></g></g><g fill="#ffffff" fill-opacity="1"><g transform="translate(139.471564, 272.321649)"><g><path d="M 22.6875 -7.828125 L 0 -7.828125 L 0 -0.46875 C 0 -0.265625 0.265625 0 0.578125 0 L 22.6875 0 C 23.046875 0 23.25 -0.265625 23.25 -0.46875 L 23.25 -7.296875 C 23.25 -7.5625 23.046875 -7.828125 22.6875 -7.828125 Z M 8.03125 -15.859375 L 8.03125 -41.53125 C 8.03125 -41.734375 7.828125 -42 7.5 -42 L 0.578125 -42 C 0.265625 -42 0 -41.734375 0 -41.53125 L 0 -15.859375 Z M 8.03125 -15.859375 "/></g></g></g><g fill="#ffffff" fill-opacity="1"><g transform="translate(169.712535, 272.321649)"><g><path d="M 32.96875 -0.625 L 17.015625 -41.6875 C 16.859375 -42.109375 16.125 -42.109375 15.953125 -41.6875 L 0.046875 -0.625 C -0.109375 -0.3125 0.109375 0 0.578125 0 L 7.765625 0 C 7.984375 0 8.25 -0.109375 8.296875 -0.3125 L 16.484375 -23.734375 L 24.78125 -0.3125 C 24.828125 -0.109375 25.09375 0 25.25 0 L 32.5 0 C 32.859375 0 33.125 -0.3125 32.96875 -0.625 Z M 32.96875 -0.625 "/></g></g></g><g fill="#ffffff" fill-opacity="1"><g transform="translate(210.138494, 272.321649)"><g><path d="M 20.46875 -29.5 C 20.46875 -24.890625 14.28125 -24.890625 14.28125 -24.890625 L 7.984375 -24.890625 L 7.984375 -34.5 L 14.28125 -34.5 C 14.28125 -34.5 20.46875 -34.546875 20.46875 -29.5 Z M 28.5 -29.984375 C 28.5 -42.3125 14.28125 -42 14.28125 -42 L 0.578125 -42 C 0.265625 -42 0 -41.734375 0 -41.53125 L 0 -17.0625 L 14.28125 -17.0625 C 14.28125 -17.0625 21.046875 -17.375 21.046875 -12.4375 C 21.046875 -8.40625 16.90625 -7.671875 14.28125 -7.671875 L 8.03125 -7.671875 L 8.03125 0 L 14.28125 0 C 17.109375 0 29.078125 -0.53125 29.078125 -12.234375 C 29.078125 -12.234375 29.34375 -18.75 22.6875 -21 C 25.875 -22.3125 28.5 -25.09375 28.5 -29.984375 Z M 28.5 -29.984375 "/></g></g></g><path stroke-linecap="butt" transform="matrix(-0.75, 0, 0, -0.75, 337.491544, 44.992307)" fill="none" stroke-linejoin="miter" d="M -0.000858083 5.00016 L 84.431439 5.00016 " stroke="#ffffff" stroke-width="10" stroke-opacity="1" stroke-miterlimit="4"/><path stroke-linecap="butt" transform="matrix(0, -0.75, 0.75, 0, 329.995413, 101.585991)" fill="none" stroke-linejoin="miter" d="M 0.0000712389 5.000908 L 82.463618 5.000908 " stroke="#ffffff" stroke-width="10" stroke-opacity="1" stroke-miterlimit="4"/><path stroke-linecap="butt" transform="matrix(0.75, 0, 0, 0.75, 37.500002, 329.999978)" fill="none" stroke-linejoin="miter" d="M -0.00000271667 5.000029 L 84.432294 5.000029 " stroke="#ffffff" stroke-width="10" stroke-opacity="1" stroke-miterlimit="4"/><path stroke-linecap="butt" transform="matrix(0, 0.75, -0.75, 0, 44.996157, 273.4063)" fill="none" stroke-linejoin="miter" d="M -0.0000661951 5.000084 L 82.463481 5.000084 " stroke="#ffffff" stroke-width="10" stroke-opacity="1" stroke-miterlimit="4"/></svg>